PathFileType  4	(X/Y/Z) C:\Users\antoi\Documents\MyRepositories\mobilecap\ResultsAnalysis
DataRate	CameraRate	NumFrames	NumMarkers	Units	OrigDataRate	OrigDataStartFrame	OrigNumFrames
100.0	100.0	5	51	mm	100.0	1060	1413
Frame#	Time	r_knee			r_shank_antsup			r_ankle			r_calc			r_5meta			r_toe			L_knee			L_shank_antsup			L_ankle			L_calc			L_5meta			L_toe			r_sh2			r_sh3			r_sh4			L_sh2			L_sh3			r_thigh1			r_thigh2			r_thigh3			r_thigh4			r_thigh5			L_thigh1			L_thigh2			L_thigh3			L_thigh4			r.ASIS			r.PSIS			L.ASIS			L.PSIS			C7			R_Shoulder			L_Shoulder			R_Sternum			L_Sternum			R_humerus			R_elbow_med			R_elbow_lat			R_forearm			R_wrist_radius			R_wrist_ulna			L_humerus			L_elbow_med			L_elbow_lat			L_forearm			L_wrist_radius			L_wrist_ulna			R_HJC			L_HJC			R_HJC_reg			L_HJC_reg			
		X1	Y1	Z1	X2	Y2	Z2	X3	Y3	Z3	X4	Y4	Z4	X5	Y5	Z5	X6	Y6	Z6	X7	Y7	Z7	X8	Y8	Z8	X9	Y9	Z9	X10	Y10	Z10	X11	Y11	Z11	X12	Y12	Z12	X13	Y13	Z13	X14	Y14	Z14	X15	Y15	Z15	X16	Y16	Z16	X17	Y17	Z17	X18	Y18	Z18	X19	Y19	Z19	X20	Y20	Z20	X21	Y21	Z21	X22	Y22	Z22	X23	Y23	Z23	X24	Y24	Z24	X25	Y25	Z25	X26	Y26	Z26	X27	Y27	Z27	X28	Y28	Z28	X29	Y29	Z29	X30	Y30	Z30	X31	Y31	Z31	X32	Y32	Z32	X33	Y33	Z33	X34	Y34	Z34	X35	Y35	Z35	X36	Y36	Z36	X37	Y37	Z37	X38	Y38	Z38	X39	Y39	Z39	X40	Y40	Z40	X41	Y41	Z41	X42	Y42	Z42	X43	Y43	Z43	X44	Y44	Z44	X45	Y45	Z45	X46	Y46	Z46	X47	Y47	Z47	X48	Y48	Z48	X49	Y49	Z49	X50	Y50	Z50	X51	Y51	Z51	

1060	10.59000000	-143.85863	464.37149	-453.81360	-89.39714	394.10005	-453.78120	-256.65876	97.46065	-449.35214	-328.77280	63.04706	-486.75700	-163.65792	45.52494	-400.31098	-110.79183	70.22670	-451.95680	-143.13363	456.75451	-952.08026	-101.41328	369.62246	-968.77059	-257.69266	99.44723	-939.05792	-327.15414	63.04270	-895.28240	-160.70721	41.86028	-993.30353	-113.83266	63.46186	-941.26932	-147.70486	295.16662	-431.13059	-160.60762	429.78046	-435.92939	-212.74435	329.71504	-428.47949	-184.21282	404.59012	-961.88291	-223.95935	288.06127	-968.07931	-411.86649	616.20235	-512.93570	-309.16020	574.85764	-491.26684	-316.21421	515.76333	-458.10348	-458.99012	516.08510	-490.76526	-349.68551	473.04723	-470.82773	-391.53917	567.54746	-946.52387	-257.49833	537.58533	-951.64094	-417.32943	457.12142	-910.96897	-278.84501	432.99186	-929.97168	-397.74078	586.10281	-585.34843	-536.53659	704.13009	-668.55104	-391.43265	571.86863	-827.40496	-538.89878	710.57367	-758.18940	-232.08327	989.27008	-702.88092	-150.03422	923.60374	-548.03127	-161.69396	941.41488	-863.31412	-132.16847	877.17486	-683.05023	-131.61658	876.09607	-724.81547	-160.36237	833.24895	-452.86274	-215.92170	619.82567	-415.95258	-187.82445	662.56870	-352.66931	-59.36914	666.43876	-406.82570	52.90638	664.25540	-465.80296	62.63597	632.16717	-455.19369	-172.38144	859.28323	-949.77896	-250.61285	640.49736	-992.42311	-223.74089	689.92556	-1054.18381	-123.59479	687.80424	-1006.66988	11.27441	666.81410	-950.41121	14.44355	636.44448	-966.03465	-499.64713	550.11024	-605.64057	-495.41902	545.82464	-812.02348	-488.66386	543.45722	-618.85150	-492.87019	554.93162	-778.47186	
1061	10.60000000	-145.71346	464.55163	-453.87499	-90.74057	394.60788	-453.85429	-256.75240	97.41182	-449.35478	-328.82253	62.97542	-486.75429	-163.68637	45.58172	-400.37264	-110.88542	70.36364	-451.91942	-144.89455	456.75059	-952.32611	-102.61872	370.01445	-968.78960	-257.82417	99.35007	-938.98234	-327.16027	63.02981	-895.25705	-160.76081	41.83023	-993.15035	-113.81093	63.61265	-941.36090	-148.45366	295.45302	-431.39568	-162.07562	430.01076	-435.95006	-213.44961	328.11471	-428.67913	-185.57215	404.66204	-962.23176	-224.83812	287.79860	-968.16014	-415.62841	612.49503	-513.50704	-312.56009	572.76403	-491.79043	-318.72346	513.59848	-458.46252	-461.46187	512.00147	-490.91064	-351.62118	470.36082	-471.08217	-395.07555	563.88433	-947.42548	-260.35297	535.76000	-952.06572	-418.97605	452.99514	-911.17375	-280.25739	430.95862	-930.22501	-401.50019	582.54766	-585.33544	-541.53236	698.51163	-669.06123	-394.72651	567.75454	-827.65492	-543.93055	704.71285	-758.74296	-239.53059	986.90917	-702.93753	-157.33163	921.86802	-548.12673	-168.08925	939.88524	-863.72086	-138.86506	875.56096	-683.05784	-138.19820	874.45802	-724.84613	-167.27361	831.52448	-452.67902	-221.40094	617.90661	-415.71312	-193.73881	660.72299	-352.45713	-65.11583	665.23023	-406.37784	47.22090	663.45498	-465.25735	57.14812	631.41193	-454.55145	-177.64582	857.50799	-949.81142	-254.31771	638.03863	-992.94701	-227.22559	687.83991	-1054.55992	-127.28895	686.08553	-1006.39104	7.28556	665.69239	-949.36033	10.76298	635.31929	-964.90935	-502.84966	545.16636	-605.76746	-498.37215	540.43040	-812.13503	-491.81608	538.56859	-618.83196	-496.09041	549.62192	-778.68469	
1062	10.61000000	-147.62900	464.84316	-453.81783	-92.11535	395.19667	-454.01087	-256.87443	97.30747	-449.34671	-328.83386	62.95249	-486.71430	-163.73072	45.63617	-400.47382	-110.96509	70.48478	-451.93050	-146.69201	456.93265	-952.85650	-103.87158	370.35570	-968.73155	-257.95438	99.27334	-938.91485	-327.16730	63.02097	-895.24844	-160.79993	41.84023	-993.06358	-113.79931	63.73656	-941.41743	-149.34960	296.17096	-431.29168	-163.70478	430.14652	-436.20257	-214.31191	327.46405	-428.66011	-186.95383	404.80274	-962.74473	-225.72967	287.54568	-968.04878	-419.34137	609.11250	-513.86631	-315.92371	570.70433	-492.24767	-321.36057	511.75969	-458.25077	-463.93885	507.91860	-491.09093	-353.68232	467.96183	-471.12872	-398.37186	560.16032	-947.32016	-263.30725	534.26718	-952.39740	-420.72403	448.90461	-911.38540	-281.71451	429.16102	-930.73368	-404.93889	579.02405	-585.74019	-546.38915	692.81606	-669.76701	-397.95234	563.82393	-828.28842	-548.92862	698.82103	-759.41745	-247.24841	984.87166	-703.14016	-164.87593	920.42280	-548.29628	-174.71086	938.81354	-864.42753	-145.87094	874.19049	-683.18866	-145.07246	873.26650	-724.95561	-174.48244	830.01853	-452.63721	-227.16992	616.25751	-415.72656	-199.83907	659.19332	-352.37791	-71.02237	664.27639	-406.05351	41.35232	663.03581	-464.71036	51.42254	631.06782	-453.92045	-183.27004	855.93940	-949.68634	-258.07116	635.76241	-993.56575	-230.84396	685.90714	-1054.77880	-131.18577	684.58825	-1005.85773	3.12895	664.97702	-948.31379	6.87716	634.60515	-963.74059	-505.69694	540.17177	-606.19428	-501.19339	535.10976	-812.55387	-494.61008	533.65792	-619.14404	-499.14367	544.37763	-779.18323	
1063	10.62000000	-149.59082	465.18875	-453.88921	-93.48151	395.92662	-454.10481	-257.05392	97.18857	-449.31713	-328.85555	62.90360	-486.67660	-163.78419	45.70445	-400.58017	-111.01015	70.62682	-451.96536	-148.57080	457.15915	-953.29938	-105.18809	370.85192	-968.94428	-258.08300	99.21803	-938.85931	-327.18080	63.01217	-895.24822	-160.80947	41.89967	-993.05933	-113.82838	63.83785	-941.43399	-150.61649	296.87573	-431.00693	-165.40493	430.35264	-436.51716	-215.38378	328.08508	-428.45811	-188.41730	404.96518	-963.14015	-226.61509	287.52552	-968.13297	-423.19675	605.76165	-514.31943	-319.17794	568.55230	-492.61924	-324.01653	510.09908	-457.78143	-466.40395	503.86574	-491.44026	-355.80979	465.81217	-470.94946	-401.17038	556.29758	-946.03980	-266.38299	533.09032	-952.63720	-422.49264	444.98920	-911.65028	-283.09237	427.37235	-931.05720	-408.08573	575.54744	-586.48389	-551.15382	687.11481	-670.46571	-401.24451	560.21393	-829.27530	-553.97642	693.01570	-760.05710	-255.22305	983.13142	-703.45927	-172.69416	919.31077	-548.44631	-181.81810	938.04803	-864.97204	-153.04101	873.16124	-683.34882	-152.14623	872.41519	-725.13557	-181.85210	828.80477	-452.65222	-232.97680	614.81595	-415.73587	-206.03490	657.91201	-352.41244	-77.20752	663.61193	-405.73738	35.29037	662.97490	-464.14996	45.46188	631.08842	-453.35893	-189.22166	854.69554	-949.62243	-261.71702	633.82033	-994.06387	-234.63302	684.18202	-1054.89349	-135.26987	683.49186	-1005.48102	-1.16185	664.69584	-947.31772	2.76522	634.35436	-962.61304	-508.22811	535.16651	-606.83583	-504.01049	530.00707	-813.19905	-497.10014	528.76323	-619.69868	-502.14754	539.31455	-779.89684	
1064	10.63000000	-151.55287	465.52028	-454.14948	-94.93121	396.65437	-454.20734	-257.26279	97.11110	-449.28041	-328.90893	62.84575	-486.67311	-163.83522	45.77421	-400.64404	-111.04129	70.80333	-451.96956	-150.53655	457.27817	-953.35333	-106.55399	371.55350	-969.39817	-258.20500	99.15978	-938.79993	-327.20263	63.00373	-895.23325	-160.81370	41.95611	-993.03737	-113.87537	63.94744	-941.43579	-152.27347	297.03109	-431.15432	-166.98287	430.75611	-436.61273	-216.96524	329.58099	-428.55549	-189.94795	405.11137	-963.22490	-227.46220	287.71722	-968.50349	-427.27422	602.37623	-514.68479	-322.51358	566.28395	-493.15065	-326.57912	508.18732	-457.81266	-468.81986	499.76092	-491.83781	-357.83572	463.60198	-470.91769	-403.98014	552.64536	-945.17446	-269.40960	531.96774	-952.73271	-424.18322	441.32927	-911.91450	-284.45728	425.58439	-931.13698	-411.32617	572.36805	-586.93281	-556.03485	681.59704	-670.89473	-404.36400	557.11071	-829.97115	-559.04798	687.45751	-760.47708	-263.44271	981.59449	-703.82006	-180.78240	918.52112	-548.53942	-189.58178	937.34616	-865.02337	-160.37655	872.61464	-683.51655	-159.60788	871.79783	-725.30953	-189.40850	827.94818	-452.63922	-238.87569	613.58947	-415.61191	-212.42716	656.87517	-352.45201	-83.66383	663.26596	-405.38897	29.02901	663.26913	-463.61139	39.32259	631.41542	-452.91000	-195.49610	853.84234	-949.74564	-265.63879	632.28189	-994.35577	-238.67180	682.78930	-1055.15317	-139.56684	682.89838	-1005.42249	-5.60815	664.81991	-946.38271	-1.52228	634.48191	-961.40952	-510.76400	530.37169	-607.31561	-506.61582	525.28865	-813.68203	-499.58215	524.10896	-620.09252	-504.97558	534.59921	-780.44627	
